<svg xmlns="http://www.w3.org/2000/svg" viewBox="0 0 800 400" font-family="'Segoe UI', system-ui, -apple-system, sans-serif">
  <defs>
    <linearGradient id="totalFill" x1="0" y1="0" x2="0" y2="1">
      <stop offset="0%" stop-color="#6366f1" stop-opacity="0.25"/>
      <stop offset="100%" stop-color="#6366f1" stop-opacity="0.02"/>
    </linearGradient>
    <linearGradient id="srcFill" x1="0" y1="0" x2="0" y2="1">
      <stop offset="0%" stop-color="#f59e0b" stop-opacity="0.25"/>
      <stop offset="100%" stop-color="#f59e0b" stop-opacity="0.02"/>
    </linearGradient>
  </defs>

  <!-- Background -->
  <rect width="800" height="400" rx="12" fill="#0d1117"/>

  <!-- Title -->
  <text x="400" y="35" text-anchor="middle" fill="#e6edf3" font-size="16" font-weight="600">Lines of Code Over Time</text>

  <!-- Y-axis gridlines -->
  <line x1="70" y1="340" x2="770" y2="340" stroke="#21262d" stroke-width="1"/>
  <text x="60" y="344" text-anchor="end" fill="#7d8590" font-size="11">0</text>

  <line x1="70" y1="276.7" x2="770" y2="276.7" stroke="#21262d" stroke-width="1" stroke-dasharray="4,4"/>
  <text x="60" y="280.7" text-anchor="end" fill="#7d8590" font-size="11">10K</text>

  <line x1="70" y1="213.3" x2="770" y2="213.3" stroke="#21262d" stroke-width="1" stroke-dasharray="4,4"/>
  <text x="60" y="217.3" text-anchor="end" fill="#7d8590" font-size="11">20K</text>

  <line x1="70" y1="150" x2="770" y2="150" stroke="#21262d" stroke-width="1" stroke-dasharray="4,4"/>
  <text x="60" y="154" text-anchor="end" fill="#7d8590" font-size="11">30K</text>

  <line x1="70" y1="86.7" x2="770" y2="86.7" stroke="#21262d" stroke-width="1" stroke-dasharray="4,4"/>
  <text x="60" y="90.7" text-anchor="end" fill="#7d8590" font-size="11">40K</text>

  <!-- X-axis labels -->
  <text x="70" y="360" text-anchor="middle" fill="#7d8590" font-size="11">Jan 31</text>
  <text x="272.6" y="360" text-anchor="middle" fill="#7d8590" font-size="11">Feb 11</text>
  <text x="438.4" y="360" text-anchor="middle" fill="#7d8590" font-size="11">Feb 20</text>
  <text x="604" y="360" text-anchor="middle" fill="#7d8590" font-size="11">Mar 1</text>
  <text x="770" y="360" text-anchor="middle" fill="#7d8590" font-size="11">Mar 10</text>

  <!-- Total LOC filled area -->
  <path d="M70.0,340 L70.0,312.8 L70.0,312.7 L88.4,297.4 L88.4,294.8 L88.4,296.5 L88.4,292.9 L88.4,285.3 L106.8,279.9 L125.3,267.0 L180.5,259.7 L272.6,216.8 L309.5,208.5 L346.3,206.0 L401.6,118.6 L438.4,108.8 L456.8,107.5 L475.3,100.8 L475.3,98.5 L493.7,90.3 L512.1,91.4 L512.1,79.0 L530.5,72.8 L530.5,70.6 L548.9,65.3 L567.4,67.1 L659.5,66.4 L677.9,63.6 L696.3,75.2 L714.7,121.8 L770.0,119.9 L770.0,130.0 L770.0,340 Z" fill="url(#totalFill)"/>

  <!-- Total LOC line -->
  <polyline fill="none" stroke="#6366f1" stroke-width="2.5" stroke-linejoin="round" stroke-linecap="round"
    points="70.0,312.8 70.0,312.7 88.4,297.4 88.4,294.8 88.4,296.5 88.4,292.9 88.4,285.3 106.8,279.9 125.3,267.0 180.5,259.7 272.6,216.8 309.5,208.5 346.3,206.0 401.6,118.6 438.4,108.8 456.8,107.5 475.3,100.8 475.3,98.5 493.7,90.3 512.1,91.4 512.1,79.0 530.5,72.8 530.5,70.6 548.9,65.3 567.4,67.1 659.5,66.4 677.9,63.6 696.3,75.2 714.7,121.8 770.0,119.9 770.0,130.0"/>

  <!-- Source LOC filled area -->
  <path d="M70.0,340 L70.0,337.1 L70.0,337.1 L88.4,327.9 L88.4,326.8 L88.4,328.5 L88.4,327.4 L88.4,323.4 L106.8,323.0 L125.3,313.5 L180.5,309.3 L272.6,293.7 L309.5,287.9 L346.3,287.5 L401.6,216.2 L438.4,203.4 L456.8,202.0 L475.3,188.2 L475.3,185.9 L493.7,179.4 L512.1,185.9 L512.1,171.4 L530.5,163.3 L530.5,162.4 L548.9,158.4 L567.4,160.7 L659.5,161.2 L677.9,158.5 L696.3,170.1 L714.7,209.7 L770.0,208.3 L770.0,216.2 L770.0,340 Z" fill="url(#srcFill)"/>

  <!-- Source LOC line -->
  <polyline fill="none" stroke="#f59e0b" stroke-width="2.5" stroke-linejoin="round" stroke-linecap="round"
    points="70.0,337.1 70.0,337.1 88.4,327.9 88.4,326.8 88.4,328.5 88.4,327.4 88.4,323.4 106.8,323.0 125.3,313.5 180.5,309.3 272.6,293.7 309.5,287.9 346.3,287.5 401.6,216.2 438.4,203.4 456.8,202.0 475.3,188.2 475.3,185.9 493.7,179.4 512.1,185.9 512.1,171.4 530.5,163.3 530.5,162.4 548.9,158.4 567.4,160.7 659.5,161.2 677.9,158.5 696.3,170.1 714.7,209.7 770.0,208.3 770.0,216.2"/>

  <!-- End dots -->
  <circle cx="770" cy="130" r="4" fill="#6366f1"/>
  <circle cx="770" cy="216.2" r="4" fill="#f59e0b"/>

  <!-- Legend -->
  <line x1="570" y1="55" x2="586" y2="55" stroke="#6366f1" stroke-width="2.5" stroke-linecap="round"/>
  <text x="592" y="59" fill="#e6edf3" font-size="12">All files (33K)</text>

  <line x1="570" y1="73" x2="586" y2="73" stroke="#f59e0b" stroke-width="2.5" stroke-linecap="round"/>
  <text x="592" y="77" fill="#e6edf3" font-size="12">Source TS/JS (20K)</text>

  <!-- Subtitle -->
  <text x="400" y="390" text-anchor="middle" fill="#7d8590" font-size="11">299 commits across 38 days | Sampled every ~10 commits</text>
</svg>
